<svg xmlns="http://www.w3.org/2000/svg" viewBox="0 0 280 280" role="img" aria-label="普通地鼠">
  <defs>
    <radialGradient id="fur" cx="44%" cy="24%" r="78%"><stop offset="0" stop-color="#ffd79a"/><stop offset=".62" stop-color="#d88d43"/><stop offset="1" stop-color="#9d5728"/></radialGradient>
    <linearGradient id="helmet" x1="0" y1="0" x2="0" y2="1"><stop offset="0" stop-color="#fff39a"/><stop offset="1" stop-color="#f0a22b"/></linearGradient>
    <filter id="s"><feDropShadow dx="0" dy="9" stdDeviation="7" flood-color="#25413f" flood-opacity=".28"/></filter>
  </defs>
  <ellipse cx="140" cy="242" rx="92" ry="23" fill="#31554b" opacity=".25"/>
  <g filter="url(#s)">
    <circle cx="73" cy="89" r="43" fill="#c47a35"/><circle cx="73" cy="89" r="27" fill="#ffd4b5"/>
    <circle cx="207" cy="89" r="43" fill="#c47a35"/><circle cx="207" cy="89" r="27" fill="#ffd4b5"/>
    <path d="M46 111 C46 53 90 24 140 24 C190 24 234 53 234 111 L244 221 C247 246 230 263 199 263 H81 C50 263 33 246 36 221Z" fill="url(#fur)" stroke="#8d4e24" stroke-width="6"/>
    
    <path d="M82 220 C96 190 115 178 140 178 C165 178 184 190 198 220 L202 259 H78Z" fill="#f4ce8c" opacity=".92"/>
    <circle cx="102" cy="134" r="10" fill="#402b1d"/><circle cx="178" cy="134" r="10" fill="#402b1d"/>
    <circle cx="105" cy="130" r="3.8" fill="#fff"/><circle cx="181" cy="130" r="3.8" fill="#fff"/>
    <ellipse cx="140" cy="150" rx="18" ry="12" fill="#5d351e"/>
    <path d="M123 167 C131 184 149 184 157 167" fill="none" stroke="#442819" stroke-width="7" stroke-linecap="round"/>
    <path d="M134 168v20M146 168v20" stroke="#fff" stroke-width="8" stroke-linecap="round"/>
    <circle cx="84" cy="164" r="16" fill="#ffb09c" opacity=".62"/><circle cx="196" cy="164" r="16" fill="#ffb09c" opacity=".62"/>
    <path d="M56 151 H14 M58 167 H21 M56 183 H12 M224 151 H266 M222 167 H259 M224 183 H268" stroke="#554333" stroke-width="5" stroke-linecap="round" opacity=".9"/>
    <path d="M76 87 C84 80 93 78 101 81 M176 81 C185 78 195 80 202 87" fill="none" stroke="#724822" stroke-width="7" stroke-linecap="round"/>
  </g>
</svg>