<svg xmlns="http://www.w3.org/2000/svg" width="512" height="512" viewBox="0 0 512 512">
  <ellipse cx="256" cy="430" rx="120" ry="24" fill="#183047" opacity=".13"/>
  <circle cx="178" cy="207" r="43" fill="#263238" stroke="#111827" stroke-width="8"/>
  <circle cx="334" cy="207" r="43" fill="#263238" stroke="#111827" stroke-width="8"/>
  <ellipse cx="256" cy="309" rx="112" ry="116" fill="#f8f7f0" stroke="#263238" stroke-width="10"/>
  <ellipse cx="218" cy="282" rx="36" ry="31" fill="#263238" transform="rotate(-18 218 282)"/>
  <ellipse cx="294" cy="282" rx="36" ry="31" fill="#263238" transform="rotate(18 294 282)"/>
  <circle cx="220" cy="279" r="13" fill="#ffffff"/>
  <circle cx="292" cy="279" r="13" fill="#ffffff"/>
  <circle cx="221" cy="280" r="7" fill="#111827"/>
  <circle cx="291" cy="280" r="7" fill="#111827"/>
  <ellipse cx="256" cy="320" rx="22" ry="15" fill="#30343b"/>
  <path d="M238 348q18 15 36 0" fill="none" stroke="#263238" stroke-width="7" stroke-linecap="round"/>
  <ellipse cx="190" cy="373" rx="33" ry="27" fill="#263238"/>
  <ellipse cx="322" cy="373" rx="33" ry="27" fill="#263238"/>
</svg>
