<svg xmlns="http://www.w3.org/2000/svg" viewBox="0 0 320 320" role="img" aria-label="蜥蜴">
  <defs>
    <linearGradient id="bg" x1="0" y1="0" x2="1" y2="1"><stop offset="0" stop-color="#E1F7FF"/><stop offset="1" stop-color="white"/></linearGradient>
    <linearGradient id="accent" x1="0" y1="0" x2="1" y2="1"><stop offset="0" stop-color="#2A9FD6"/><stop offset="1" stop-color="#185A9D"/></linearGradient>
    <filter id="shadow" x="-20%" y="-20%" width="140%" height="140%"><feDropShadow dx="0" dy="10" stdDeviation="9" flood-color="#1d2b44" flood-opacity="0.16"/></filter>
  </defs>
  <rect x="18" y="18" width="284" height="284" rx="34" fill="url(#bg)"/>
  <circle cx="262" cy="58" r="38" fill="#2A9FD6" opacity="0.12"/>
  <circle cx="54" cy="248" r="52" fill="#185A9D" opacity="0.09"/>
  <g filter="url(#shadow)"><g><ellipse cx="154" cy="154" rx="80" ry="48" fill="url(#accent)"/><path d="M84 151c-28 0-41 19-50 37 30 9 57-2 79-28" fill="#185A9D" opacity=".88"/><path d="M221 137c22-21 48-19 68-4-14 26-43 37-67 28" fill="#185A9D"/><circle cx="242" cy="132" r="6" fill="#fff"/><circle cx="244" cy="132" r="2.5" fill="#0f172a"/><path d="M120 118c21 18 54 22 88 6" stroke="#fff" stroke-width="7" opacity=".45" fill="none" stroke-linecap="round"/><circle cx="123" cy="158" r="8" fill="#fff" opacity=".36"/><circle cx="170" cy="171" r="7" fill="#fff" opacity=".36"/></g></g>
  <rect x="38" y="236" width="244" height="54" rx="22" fill="white" opacity="0.82"/>
  <text x="160" y="262" text-anchor="middle" font-size="25" font-family="'Noto Sans CJK SC','Microsoft YaHei',sans-serif" font-weight="700" fill="#1e293b">蜥蜴</text>
  <text x="160" y="283" text-anchor="middle" font-size="13" font-family="'Noto Sans CJK SC','Microsoft YaHei',sans-serif" fill="#64748b">动物 / 脊椎动物 / 爬行</text>
  <text x="42" y="54" font-size="14" font-family="Arial,sans-serif" fill="#64748b" opacity="0.75">#008</text>
</svg>