<svg xmlns="http://www.w3.org/2000/svg" viewBox="0 0 320 320" role="img" aria-label="猫头鹰">
  <defs>
    <linearGradient id="bg" x1="0" y1="0" x2="1" y2="1"><stop offset="0" stop-color="#E1F7FF"/><stop offset="1" stop-color="white"/></linearGradient>
    <linearGradient id="accent" x1="0" y1="0" x2="1" y2="1"><stop offset="0" stop-color="#2A9FD6"/><stop offset="1" stop-color="#185A9D"/></linearGradient>
    <filter id="shadow" x="-20%" y="-20%" width="140%" height="140%"><feDropShadow dx="0" dy="10" stdDeviation="9" flood-color="#1d2b44" flood-opacity="0.16"/></filter>
  </defs>
  <rect x="18" y="18" width="284" height="284" rx="34" fill="url(#bg)"/>
  <circle cx="262" cy="58" r="38" fill="#2A9FD6" opacity="0.12"/>
  <circle cx="54" cy="248" r="52" fill="#185A9D" opacity="0.09"/>
  <g filter="url(#shadow)"><g><path d="M95 158c28-61 99-76 143-18-48 3-78 20-113 60-22-4-38-15-30-42Z" fill="url(#accent)"/><path d="M140 136c28-42 75-48 108-11-51 4-78 21-105 56-9-19-10-33-3-45Z" fill="#fff" opacity=".42"/><circle cx="205" cy="127" r="6" fill="#0f172a"/><polygon points="232,127 265,112 236,143" fill="#f59e0b"/><path d="M123 204l-12 28m38-28l6 29" stroke="#185A9D" stroke-width="8" stroke-linecap="round"/></g></g>
  <rect x="38" y="236" width="244" height="54" rx="22" fill="white" opacity="0.82"/>
  <text x="160" y="262" text-anchor="middle" font-size="25" font-family="'Noto Sans CJK SC','Microsoft YaHei',sans-serif" font-weight="700" fill="#1e293b">猫头鹰</text>
  <text x="160" y="283" text-anchor="middle" font-size="13" font-family="'Noto Sans CJK SC','Microsoft YaHei',sans-serif" fill="#64748b">动物 / 脊椎动物 / 鸟类</text>
  <text x="42" y="54" font-size="14" font-family="Arial,sans-serif" fill="#64748b" opacity="0.75">#012</text>
</svg>