<svg xmlns="http://www.w3.org/2000/svg" viewBox="0 0 320 320" role="img" aria-label="西瓜">
  <defs>
    <linearGradient id="bg" x1="0" y1="0" x2="1" y2="1"><stop offset="0" stop-color="#E9FFE8"/><stop offset="1" stop-color="white"/></linearGradient>
    <linearGradient id="accent" x1="0" y1="0" x2="1" y2="1"><stop offset="0" stop-color="#42B883"/><stop offset="1" stop-color="#1F7A3D"/></linearGradient>
    <filter id="shadow" x="-20%" y="-20%" width="140%" height="140%"><feDropShadow dx="0" dy="10" stdDeviation="9" flood-color="#1d2b44" flood-opacity="0.16"/></filter>
  </defs>
  <rect x="18" y="18" width="284" height="284" rx="34" fill="url(#bg)"/>
  <circle cx="262" cy="58" r="38" fill="#42B883" opacity="0.12"/>
  <circle cx="54" cy="248" r="52" fill="#1F7A3D" opacity="0.09"/>
  <g filter="url(#shadow)"><g><circle cx="154" cy="154" r="67" fill="url(#accent)"/><path d="M151 92c12-37 43-41 58-31-6 26-29 43-58 31Z" fill="#37a169"/><path d="M151 95c-4-16 0-31 13-45" stroke="#795548" stroke-width="8" fill="none" stroke-linecap="round"/><circle cx="133" cy="136" r="15" fill="#fff" opacity=".35"/></g></g>
  <rect x="38" y="236" width="244" height="54" rx="22" fill="white" opacity="0.82"/>
  <text x="160" y="262" text-anchor="middle" font-size="25" font-family="'Noto Sans CJK SC','Microsoft YaHei',sans-serif" font-weight="700" fill="#1e293b">西瓜</text>
  <text x="160" y="283" text-anchor="middle" font-size="13" font-family="'Noto Sans CJK SC','Microsoft YaHei',sans-serif" fill="#64748b">植物 / 水果</text>
  <text x="42" y="54" font-size="14" font-family="Arial,sans-serif" fill="#64748b" opacity="0.75">#032</text>
</svg>