<svg xmlns="http://www.w3.org/2000/svg" viewBox="0 0 320 320" role="img" aria-label="锤子">
  <defs>
    <linearGradient id="bg" x1="0" y1="0" x2="1" y2="1"><stop offset="0" stop-color="#FFF4D7"/><stop offset="1" stop-color="white"/></linearGradient>
    <linearGradient id="accent" x1="0" y1="0" x2="1" y2="1"><stop offset="0" stop-color="#F5A623"/><stop offset="1" stop-color="#9A5C00"/></linearGradient>
    <filter id="shadow" x="-20%" y="-20%" width="140%" height="140%"><feDropShadow dx="0" dy="10" stdDeviation="9" flood-color="#1d2b44" flood-opacity="0.16"/></filter>
  </defs>
  <rect x="18" y="18" width="284" height="284" rx="34" fill="url(#bg)"/>
  <circle cx="262" cy="58" r="38" fill="#F5A623" opacity="0.12"/>
  <circle cx="54" cy="248" r="52" fill="#9A5C00" opacity="0.09"/>
  <g filter="url(#shadow)"><g><rect x="137" y="75" width="36" height="158" rx="18" fill="url(#accent)" transform="rotate(42 155 154)"/><path d="M207 78c20 18 23 48 5 68l-38-38c12-5 22-13 33-30Z" fill="#9A5C00"/><path d="M84 216l49-49" stroke="#fff" stroke-width="13" opacity=".5" stroke-linecap="round"/><circle cx="89" cy="224" r="18" fill="#9A5C00"/></g></g>
  <rect x="38" y="236" width="244" height="54" rx="22" fill="white" opacity="0.82"/>
  <text x="160" y="262" text-anchor="middle" font-size="25" font-family="'Noto Sans CJK SC','Microsoft YaHei',sans-serif" font-weight="700" fill="#1e293b">锤子</text>
  <text x="160" y="283" text-anchor="middle" font-size="13" font-family="'Noto Sans CJK SC','Microsoft YaHei',sans-serif" fill="#64748b">工具 / 五金工具</text>
  <text x="42" y="54" font-size="14" font-family="Arial,sans-serif" fill="#64748b" opacity="0.75">#045</text>
</svg>