<svg xmlns="http://www.w3.org/2000/svg" viewBox="0 0 320 420" role="img" aria-label="小康康"><defs><linearGradient id="body" x1="0" y1="0" x2="1" y2="1"><stop stop-color="#7DF2E5"/><stop offset="1" stop-color="#4A79FF"/></linearGradient><linearGradient id="face" x1="0" y1="0" x2="1" y2="1"><stop stop-color="#FFF8E7"/><stop offset="1" stop-color="#FFE2A8"/></linearGradient><filter id="s"><feDropShadow dx="0" dy="16" stdDeviation="10" flood-color="#062633" flood-opacity=".32"/></filter></defs><g filter="url(#s)"><path d="M160 18c33 0 60 27 60 60v16c36 21 61 61 61 108v75c0 73-60 132-134 132H133C59 409 0 350 0 277v-75c0-46 24-87 61-108V78c0-33 27-60 60-60z" transform="translate(26 0) scale(.84)" fill="url(#body)"/><path d="M105 123c-28 17-47 48-47 83v61c0 59 48 107 107 107h18c59 0 107-48 107-107v-61c0-35-18-66-46-83-14 38-56 66-122 66-7 0-14 0-21-1-20-2-40-9-58-19 7-18 20-32 62-46z" fill="url(#face)"/><circle cx="118" cy="218" r="12" fill="#16435A"/><circle cx="226" cy="218" r="12" fill="#16435A"/><circle cx="113" cy="213" r="4" fill="#fff"/><circle cx="221" cy="213" r="4" fill="#fff"/><path d="M139 262c17 17 48 17 66 0" fill="none" stroke="#16435A" stroke-width="10" stroke-linecap="round"/><path d="M104 306c35 22 101 21 137-2" fill="none" stroke="#FF8B6B" stroke-width="10" stroke-linecap="round" opacity=".55"/><path d="M83 74c-20-16-30-35-30-57" fill="none" stroke="#6CF0E8" stroke-width="13" stroke-linecap="round"/><path d="M237 74c20-16 30-35 30-57" fill="none" stroke="#6CF0E8" stroke-width="13" stroke-linecap="round"/><circle cx="52" cy="14" r="13" fill="#FFD166"/><circle cx="268" cy="14" r="13" fill="#EF476F"/><rect x="101" y="332" width="118" height="44" rx="22" fill="#FFFFFF" opacity=".26"/><text x="160" y="363" text-anchor="middle" font-family="Microsoft YaHei, PingFang SC, sans-serif" font-weight="900" font-size="24" fill="#fff">小康康</text></g></svg>